# xmcd
#
# Track frame offsets: 
#        150
#        17925
#        27080
#        43290
#
# Disc length: 776 seconds
#
# Revision: 0
# Processed by: cddbd v1.5.2PL0 Copyright (c) Steve Scherf et al.
# Submitted via: ExactAudioCopy v0.95a5
#
DISCID=2d030604
DTITLE=Middle Distance Runner - Middle Distance Runner
DYEAR=2007
DGENRE=
TTITLE0=Naturally
TTITLE1=Man Of The People
TTITLE2=That's A Lie
TTITLE3=Xmas Party!
EXTD=
EXTT0=
EXTT1=
EXTT2=
EXTT3=
PLAYORDER=
